HIERARCHY
ROOT joint_Root
{
	OFFSET 0.0 0.0 0.0
	CHANNELS 6 Xposition Yposition Zposition Zrotation Xrotation Yrotation 
	JOINT Hips
	{
		OFFSET -0.726466 93.3139 -2.00062
		CHANNELS 6 Xposition Yposition Zposition Zrotation Xrotation Yrotation 
		JOINT Spine
		{
			OFFSET 15.7357 0.0 0.0
			CHANNELS 6 Xposition Yposition Zposition Zrotation Xrotation Yrotation 
			JOINT Chest
			{
				OFFSET 8.98455 -0.406207 0.0
				CHANNELS 6 Xposition Yposition Zposition Zrotation Xrotation Yrotation 
				JOINT Neck
				{
					OFFSET 16.3773 0.0 0.0
					CHANNELS 6 Xposition Yposition Zposition Zrotation Xrotation Yrotation 
					JOINT Head
					{
						OFFSET 6.45672 0.0 0.0
						CHANNELS 6 Xposition Yposition Zposition Zrotation Xrotation Yrotation 
						End Site
						{
							OFFSET 0.0 0.0 0.0
						}
					}
				}
				JOINT Shoulder_L
				{
					OFFSET 12.9942 -0.242716 4.98039
					CHANNELS 6 Xposition Yposition Zposition Zrotation Xrotation Yrotation 
					JOINT UpperArm_L
					{
						OFFSET 5.34809 0.0 0.0
						CHANNELS 6 Xposition Yposition Zposition Zrotation Xrotation Yrotation 
						JOINT LowerArm_L
						{
							OFFSET 24.3286 1.87007e-05 0.0
							CHANNELS 6 Xposition Yposition Zposition Zrotation Xrotation Yrotation 
							JOINT Hand_L
							{
								OFFSET 22.2916 0.0 0.0
								CHANNELS 6 Xposition Yposition Zposition Zrotation Xrotation Yrotation 
								End Site
								{
									OFFSET 0.0 0.0 0.0
								}
							}
						}
					}
				}
				JOINT Shoulder_R
				{
					OFFSET 12.9945 -0.242716 -4.98039
					CHANNELS 6 Xposition Yposition Zposition Zrotation Xrotation Yrotation 
					JOINT UpperArm_R
					{
						OFFSET -5.34813 0.0 0.0
						CHANNELS 6 Xposition Yposition Zposition Zrotation Xrotation Yrotation 
						JOINT LowerArm_R
						{
							OFFSET -24.3289 0.000322201 0.0
							CHANNELS 6 Xposition Yposition Zposition Zrotation Xrotation Yrotation 
							JOINT Hand_R
							{
								OFFSET -22.2915 -0.000108084 0.0
								CHANNELS 6 Xposition Yposition Zposition Zrotation Xrotation Yrotation 
								End Site
								{
									OFFSET 0.0 0.0 0.0
								}
							}
						}
					}
				}
			}
		}
		JOINT UpperLeg_L
		{
			OFFSET -2.19248 -6.46944 0.0
			CHANNELS 6 Xposition Yposition Zposition Zrotation Xrotation Yrotation 
			JOINT LowerLeg_L
			{
				OFFSET 39.0811 0.0 -1.23785e-05
				CHANNELS 6 Xposition Yposition Zposition Zrotation Xrotation Yrotation 
				JOINT Foot_L
				{
					OFFSET 40.9854 0.0 -1.26872e-05
					CHANNELS 6 Xposition Yposition Zposition Zrotation Xrotation Yrotation 
					JOINT Toes_L
					{
						OFFSET 11.7543 0.0 0.0
						CHANNELS 6 Xposition Yposition Zposition Zrotation Xrotation Yrotation 
						End Site
						{
							OFFSET 0.0 0.0 0.0
						}
					}
				}
			}
		}
		JOINT UpperLeg_R
		{
			OFFSET -2.19251 6.46944 0.0
			CHANNELS 6 Xposition Yposition Zposition Zrotation Xrotation Yrotation 
			JOINT LowerLeg_R
			{
				OFFSET -39.0811 -0.00228153 -0.0401928
				CHANNELS 6 Xposition Yposition Zposition Zrotation Xrotation Yrotation 
				JOINT Foot_R
				{
					OFFSET -40.9854 0.0 0.0
					CHANNELS 6 Xposition Yposition Zposition Zrotation Xrotation Yrotation 
					JOINT Toes_R
					{
						OFFSET -11.7543 0.0 0.0
						CHANNELS 6 Xposition Yposition Zposition Zrotation Xrotation Yrotation 
						End Site
						{
							OFFSET 0.0 0.0 0.0
						}
					}
				}
			}
		}
	}
}
MOTION
Frames:	4
Frame Time:	0.0333333
0.000000 0.000000 0.000000 0.000000 0.000000 -0.000000 -0.300800 92.217100 -1.630180 88.142900 -0.407964 6.865680 15.735700 0.000005 -0.000001 83.647300 84.937800 -83.150100 8.984550 -0.406207 -0.000000 2.301850 -1.143120 1.016230 16.377300 -0.000001 -0.000001 3.531050 -2.415220 0.210670 6.456720 -0.000001 -0.000000 8.775580 -2.911150 -1.181420 12.994200 -0.242716 4.980390 -89.746700 -0.795289 -72.330100 5.348090 -0.000007 -0.000001 -70.725600 35.302000 -13.606300 24.328600 0.000019 0.000005 1.330380 3.300880 -21.966300 22.291600 -0.000001 0.000005 4.244230 5.451230 -4.682200 12.994500 -0.242716 -4.980390 88.401800 5.182110 -72.833500 -5.348130 -0.000001 -0.000004 -66.103500 38.699100 -16.014300 -24.328900 0.000322 -0.000009 3.095630 9.838500 -17.568300 -22.291500 -0.000108 -0.000004 6.014680 5.337230 -0.997793 -2.192480 -6.469440 -0.000000 -175.313000 -8.495550 -1.210530 39.081100 -0.000007 -0.000012 -0.102987 0.230687 24.057800 40.985400 -0.000006 -0.000013 0.305863 4.225230 -66.143200 11.754300 -0.000000 0.000003 -0.000037 -0.000435 -16.594500 -2.192510 6.469440 -0.000001 178.711000 14.669400 -178.256000 -39.081100 -0.002282 -0.040193 -0.079039 0.221679 20.381400 -40.985400 0.000008 0.000006 1.534560 7.386060 -65.318700 -11.754300 -0.000006 -0.000006 -0.008379 -0.091101 -20.283200
0.000000 0.000000 0.000000 0.000000 0.000000 -0.000000 -0.310695 92.214400 -1.605380 88.094300 -0.379595 6.939920 15.735700 0.000005 -0.000001 83.717100 84.920500 -83.227800 8.984550 -0.406207 -0.000000 2.337340 -1.134090 1.000700 16.377300 -0.000001 -0.000001 3.421780 -2.478770 0.358357 6.456720 -0.000001 -0.000000 8.726380 -2.991760 -1.132080 12.994200 -0.242716 4.980390 -89.741000 -0.811647 -72.300300 5.348090 -0.000007 -0.000001 -70.680800 32.591800 -14.127400 24.328600 0.000019 0.000005 1.187030 2.703800 -23.713900 22.291600 -0.000001 0.000005 2.547410 5.435200 -4.116970 12.994500 -0.242716 -4.980390 88.426000 5.107640 -72.847200 -5.348130 -0.000001 -0.000004 -65.216900 38.443300 -16.868000 -24.328900 0.000322 -0.000009 3.434350 9.831100 -19.370300 -22.291500 -0.000108 -0.000004 4.708210 5.339270 -1.056960 -2.192480 -6.469440 -0.000000 -175.260000 -8.362550 -1.132870 39.081100 -0.000007 -0.000012 -0.103759 0.232044 24.092000 40.985400 -0.000006 -0.000013 0.278254 4.149940 -66.183300 11.754300 -0.000000 0.000003 -0.000043 -0.000495 -16.596800 -2.192510 6.469440 -0.000001 178.733000 14.774100 -178.144000 -39.081100 -0.002282 -0.040193 -0.076368 0.214763 20.357500 -40.985400 0.000008 0.000006 1.619050 7.435920 -65.339500 -11.754300 -0.000006 -0.000006 -0.008601 -0.092871 -20.355500
0.000000 0.000000 0.000000 0.000000 0.000000 -0.000000 -0.308689 92.207500 -1.661700 88.093400 -0.377981 7.057700 15.735700 0.000005 -0.000001 83.896700 84.883800 -83.422500 8.984550 -0.406207 -0.000000 2.413540 -1.109210 0.970825 16.377300 -0.000001 -0.000001 3.451940 -2.427710 0.350732 6.456720 -0.000001 -0.000000 8.591020 -3.069550 -0.894671 12.994200 -0.242716 4.980390 -89.765800 -0.731794 -72.253200 5.348090 -0.000007 -0.000001 -68.775800 30.386600 -16.718700 24.328600 0.000019 0.000005 1.400150 2.854110 -26.143300 22.291600 -0.000001 0.000005 2.751600 5.436980 -4.177540 12.994500 -0.242716 -4.980390 88.428300 5.084710 -72.798500 -5.348130 -0.000001 -0.000004 -63.203300 36.939400 -19.155100 -24.328900 0.000322 -0.000009 4.180570 10.247600 -22.341000 -22.291500 -0.000108 -0.000004 3.079910 5.340270 -1.087170 -2.192480 -6.469440 -0.000000 -175.244000 -8.399820 -1.099970 39.081100 -0.000007 -0.000012 -0.103727 0.231141 24.168700 40.985400 -0.000006 -0.000013 0.295217 4.183420 -66.174400 11.754300 -0.000000 0.000003 -0.000037 -0.000431 -16.594400 -2.192510 6.469440 -0.000001 178.712000 14.779000 -178.104000 -39.081100 -0.002282 -0.040193 -0.076186 0.213114 20.459000 -40.985400 0.000008 0.000006 1.714890 7.445060 -65.374000 -11.754300 -0.000006 -0.000006 -0.008671 -0.093421 -20.378000
0.000000 0.000000 0.000000 0.000000 0.000000 -0.000000 -0.293759 92.207400 -1.833380 88.133600 -0.345515 7.238140 15.735700 0.000005 -0.000001 83.989400 84.851900 -83.547800 8.984550 -0.406207 -0.000000 2.478390 -1.097640 0.905922 16.377300 -0.000001 -0.000001 3.776010 -2.456300 0.379451 6.456720 -0.000001 -0.000000 8.514910 -3.065140 -0.778840 12.994200 -0.242716 4.980390 -89.816200 -0.577211 -72.332800 5.348090 -0.000007 -0.000001 -65.141700 27.650000 -21.395800 24.328600 0.000019 0.000005 2.238710 3.941280 -29.625600 22.291600 -0.000001 0.000005 4.331630 5.461220 -5.040300 12.994500 -0.242716 -4.980390 88.433300 4.997510 -72.569600 -5.348130 -0.000001 -0.000004 -59.658500 34.541900 -23.755500 -24.328900 0.000322 -0.000009 4.825210 10.002600 -25.925000 -22.291500 -0.000108 -0.000004 3.455550 5.344420 -1.208720 -2.192480 -6.469440 -0.000000 -175.276000 -8.455730 -1.070760 39.081100 -0.000007 -0.000012 -0.102155 0.227107 24.218800 40.985400 -0.000006 -0.000013 0.340571 4.276980 -66.076800 11.754300 -0.000000 0.000003 -0.000035 -0.000417 -16.593800 -2.192510 6.469440 -0.000001 178.628000 14.840300 -178.101000 -39.081100 -0.002282 -0.040193 -0.078147 0.217127 20.566400 -40.985400 0.000008 0.000006 1.577750 7.462790 -65.276300 -11.754300 -0.000006 -0.000006 -0.008435 -0.091545 -20.301300
